<svg width="123" height="139" viewBox="0 0 123 139" fill="none" xmlns="http://www.w3.org/2000/svg">
<circle cx="62.5" cy="80.5" r="58.5" fill="#F28F3B"/>
<path d="M100.405 65.4804C100.017 64.5567 99.877 63.6376 99.9855 62.7228C100.099 61.8204 100.437 61.0047 101 60.2758C101.576 59.5416 102.35 58.9703 103.323 58.5617C104.308 58.148 105.258 57.9954 106.173 58.1038C107.087 58.2122 107.901 58.5444 108.612 59.1004C109.341 59.6634 109.9 60.4068 110.287 61.3304C110.644 62.1801 110.771 63.0177 110.669 63.843C110.571 64.6806 110.236 65.4516 109.663 66.156C109.107 66.8675 108.299 67.4456 107.24 67.8903C106.193 68.3299 105.218 68.5077 104.313 68.4239C103.409 68.3401 102.618 68.0423 101.939 67.5305C101.278 67.0258 100.767 66.3424 100.405 65.4804ZM101.607 65.084C101.897 65.7737 102.309 66.3248 102.845 66.7374C103.398 67.1571 104.022 67.4019 104.718 67.4719C105.431 67.5491 106.163 67.4299 106.914 67.1145C107.678 66.7938 108.276 66.3545 108.708 65.7964C109.145 65.2507 109.401 64.6361 109.476 63.9526C109.569 63.2763 109.47 62.5933 109.181 61.9037C108.896 61.2264 108.48 60.684 107.933 60.2766C107.397 59.864 106.779 59.6166 106.078 59.5343C105.377 59.452 104.645 59.5711 103.881 59.8917C103.13 60.2072 102.532 60.6465 102.088 61.2098C101.656 61.7678 101.394 62.385 101.301 63.0613C101.221 63.7325 101.323 64.4067 101.607 65.084ZM102.072 69.1915L104.99 67.9659L107.003 67.273L108.883 66.266L115.755 63.3804L116.306 64.692L102.599 70.4476L102.072 69.1915Z" fill="#FFF9EE"/>
<path d="M95.6038 56.9625L97.3581 55.4381L97.606 55.1431L100.54 52.5937C101.215 52.0067 101.568 51.364 101.598 50.6654C101.637 49.977 101.332 49.2598 100.684 48.5137C100.237 47.9995 99.7265 47.585 99.1521 47.2702C98.5777 46.9553 98.0092 46.7592 97.4466 46.6819L97.8276 45.5015C98.5208 45.6069 99.2035 45.8631 99.8755 46.27C100.558 46.6681 101.17 47.1797 101.714 47.8048C102.607 48.8332 103.038 49.848 103.005 50.8493C102.992 51.852 102.466 52.8045 101.428 53.7068L96.4974 57.9909L95.6038 56.9625ZM93.1496 54.291C92.6327 53.6961 92.2773 53.0937 92.0834 52.4836C91.9083 51.8748 91.8914 51.3056 92.0327 50.7758C92.1841 50.2373 92.4866 49.7709 92.9403 49.3767C93.3537 49.0175 93.8099 48.7891 94.3091 48.6916C94.8271 48.5954 95.3797 48.6814 95.9668 48.9498C96.5728 49.2195 97.2043 49.7325 97.8613 50.4886L100.24 53.2259L99.4384 53.9224L97.0861 51.2154C96.4203 50.4491 95.8198 50.0331 95.2848 49.9671C94.7585 49.9113 94.2937 50.0586 93.8904 50.409C93.4368 50.8033 93.2271 51.2951 93.2615 51.8845C93.2959 52.4739 93.5891 53.0862 94.1411 53.7214C94.6667 54.3263 95.254 54.7273 95.9029 54.9243C96.5707 55.1226 97.2543 55.0948 97.9538 54.8408L97.423 55.7267C96.7236 55.9807 95.9985 55.9914 95.2479 55.7588C94.5061 55.5364 93.8067 55.0471 93.1496 54.291Z" fill="#FFF9EE"/>
<path d="M84.2555 46.9479C83.3903 46.4169 82.7293 45.7448 82.2724 44.9315C81.834 44.1139 81.6251 43.2413 81.6459 42.3138C81.6736 41.3748 81.96 40.4614 82.505 39.5735C83.0569 38.6742 83.7417 38.0053 84.5593 37.5668C85.3769 37.1283 86.246 36.9252 87.1666 36.9573C88.0872 36.9895 88.9857 37.2745 89.8623 37.8125C90.7502 38.3575 91.4169 39.0331 91.8624 39.8393C92.3192 40.6525 92.5316 41.5194 92.4994 42.44C92.4786 43.3676 92.1923 44.281 91.6403 45.1803C91.0954 46.0682 90.4106 46.7371 89.586 47.187C88.7797 47.6324 87.9071 47.8413 86.9682 47.8135C86.0362 47.7744 85.132 47.4858 84.2555 46.9479ZM84.9157 45.8721C85.5646 46.2704 86.2268 46.4809 86.9023 46.5037C87.5849 46.5151 88.2291 46.3464 88.8351 45.9974C89.4594 45.644 89.9847 45.1201 90.4109 44.4257C90.8441 43.7199 91.0734 43.0144 91.0988 42.3091C91.1356 41.6108 90.9909 40.9656 90.6646 40.3736C90.3454 39.7702 89.8671 39.2729 89.2296 38.8817C88.5921 38.4904 87.9321 38.2891 87.2496 38.2776C86.574 38.2548 85.9276 38.4144 85.3102 38.7564C84.6928 39.0984 84.1676 39.6223 83.7344 40.328C83.3082 41.0224 83.0789 41.728 83.0465 42.4447C83.0211 43.15 83.168 43.8043 83.4872 44.4077C83.8134 44.9997 84.2896 45.4878 84.9157 45.8721Z" fill="#FFF9EE"/>
<path d="M75.2983 42.7286L80.0611 28.6462L81.4086 29.102L76.6458 43.1843L75.2983 42.7286Z" fill="#FFF9EE"/>
<path d="M67.9868 30.4267C68.8382 30.503 69.5683 30.7361 70.177 31.126C70.8003 31.5037 71.2617 32.0412 71.5612 32.7386C71.8741 33.4371 71.9852 34.292 71.8946 35.303L71.3489 41.3893L69.9321 41.2623L70.4652 35.3157C70.5642 34.2115 70.3594 33.355 69.8507 32.7462C69.3566 32.1252 68.6106 31.77 67.6129 31.6806C66.8679 31.6138 66.2023 31.7083 65.6162 31.9642C65.0445 32.208 64.58 32.6022 64.2228 33.1468C63.88 33.6793 63.6728 34.3446 63.6013 35.1428L63.1075 40.6504L61.6907 40.5234L62.6299 30.047L63.9869 30.1687L63.7292 33.0422L63.558 32.4837C63.9586 31.7553 64.5438 31.211 65.3137 30.8509C66.0847 30.4775 66.9758 30.3361 67.9868 30.4267Z" fill="#FFF9EE"/>
<path d="M46.1006 44.0289L39.1908 35.1616L40.4918 34.7573L46.8312 43.0045L46.2381 43.1889L46.882 32.7714L48.0491 32.4087L54.4459 40.6381L53.8528 40.8224L54.4584 30.4169L55.7021 30.0304L55.0163 41.2581L53.7344 41.6565L47.6439 33.9403L48.0457 33.8154L47.3824 43.6305L46.1006 44.0289Z" fill="#FFF9EE"/>
<path d="M36.9668 50.0167C36.1773 50.6547 35.3229 51.0531 34.4038 51.212C33.4866 51.3521 32.5944 51.2574 31.7271 50.9278C30.8514 50.5879 30.0862 50.0128 29.4314 49.2025C28.7682 48.3818 28.3666 47.5129 28.2265 46.5957C28.0864 45.6786 28.1853 44.7915 28.5232 43.9346C28.8611 43.0777 29.43 42.3261 30.23 41.6797C31.0403 41.0249 31.8999 40.6222 32.8086 40.4718C33.7277 40.3129 34.6158 40.4024 35.4727 40.7403C36.34 41.0698 37.1052 41.6449 37.7684 42.4657C38.4232 43.276 38.8248 44.1449 38.9733 45.0725C39.1238 45.9812 39.0291 46.8734 38.6892 47.7491C38.3409 48.6144 37.7668 49.3703 36.9668 50.0167ZM36.1735 49.0349C36.7657 48.5564 37.1854 48.0026 37.4326 47.3735C37.6715 46.7341 37.7277 46.0704 37.6012 45.3827C37.4768 44.6762 37.1585 44.006 36.6464 43.3723C36.1259 42.7282 35.5376 42.2763 34.8813 42.0167C34.2354 41.7487 33.579 41.6695 32.912 41.7792C32.2366 41.8784 31.6081 42.1631 31.0263 42.6332C30.4445 43.1033 30.0342 43.6581 29.7954 44.2976C29.5481 44.9267 29.4825 45.5893 29.5986 46.2855C29.7146 46.9816 30.0329 47.6518 30.5534 48.2959C31.0655 48.9296 31.6538 49.3814 32.3185 49.6515C32.9748 49.9111 33.6406 49.9913 34.316 49.892C34.9829 49.7823 35.6021 49.4967 36.1735 49.0349Z" fill="#FFF9EE"/>
<path d="M24.1819 66.4483L12.0558 59.4024L14.9245 54.4654C15.676 53.1719 16.5935 52.1912 17.6768 51.523C18.7554 50.8367 19.9085 50.4871 21.1362 50.4745C22.364 50.4618 23.5726 50.801 24.7621 51.4922C25.9516 52.1834 26.8448 53.0654 27.4418 54.1383C28.0388 55.2112 28.3119 56.3895 28.2612 57.6731C28.2057 58.9384 27.8021 60.2178 27.0506 61.5113L24.1819 66.4483ZM23.8181 64.5222L25.9016 60.9364C26.5257 59.8623 26.858 58.8119 26.8986 57.785C26.9343 56.7399 26.7101 55.7831 26.2259 54.9148C25.7303 54.0398 24.9974 53.3205 24.0273 52.7568C23.0457 52.1864 22.0578 51.9059 21.0637 51.9153C20.0696 51.9247 19.1331 52.207 18.2544 52.7623C17.3708 53.2993 16.6169 54.1049 15.9929 55.1789L13.9093 58.7647L23.8181 64.5222Z" fill="#FFF9EE"/>
<path d="M42 64.3125C42 62.9035 42.5597 61.5523 43.556 60.556C44.5523 59.5597 45.9035 59 47.3125 59H68.5625C69.2669 59.0002 69.9424 59.2801 70.4405 59.7783L83.7217 73.0595C84.2199 73.5576 84.4999 74.2331 84.5 74.9375V106.813C84.5 108.221 83.9403 109.573 82.944 110.569C81.9477 111.565 80.5965 112.125 79.1875 112.125H47.3125C45.9035 112.125 44.5523 111.565 43.556 110.569C42.5597 109.573 42 108.221 42 106.813V64.3125ZM78.0878 74.9375L68.5625 65.4122V74.9375H78.0878ZM63.25 64.3125H47.3125V106.813H79.1875V80.25H65.9062C65.2018 80.25 64.5261 79.9701 64.028 79.472C63.5299 78.9739 63.25 78.2982 63.25 77.5938V64.3125ZM63.25 84.2344C63.9545 84.2344 64.6301 84.5142 65.1283 85.0124C65.6264 85.5105 65.9062 86.1861 65.9062 86.8906V93.7597L66.6845 92.9814C67.1855 92.4976 67.8565 92.2298 68.5529 92.2359C69.2494 92.2419 69.9156 92.5213 70.4081 93.0138C70.9006 93.5063 71.18 94.1725 71.186 94.8689C71.1921 95.5654 70.9243 96.2364 70.4405 96.7374L65.128 102.05C64.6298 102.548 63.9543 102.828 63.25 102.828C62.5457 102.828 61.8702 102.548 61.372 102.05L56.0595 96.7374C55.8058 96.4923 55.6035 96.1992 55.4643 95.8751C55.325 95.5511 55.2518 95.2025 55.2487 94.8498C55.2456 94.4971 55.3129 94.1474 55.4464 93.8209C55.58 93.4945 55.7772 93.1979 56.0266 92.9485C56.276 92.6991 56.5726 92.5019 56.899 92.3683C57.2255 92.2347 57.5752 92.1675 57.9279 92.1706C58.2806 92.1737 58.6292 92.2469 58.9533 92.3861C59.2773 92.5253 59.5704 92.7277 59.8155 92.9814L60.5938 93.7597V86.8906C60.5938 86.1861 60.8736 85.5105 61.3717 85.0124C61.8699 84.5142 62.5455 84.2344 63.25 84.2344Z" fill="#FFF9EE"/>
</svg>
