<svg width="48" height="48" viewBox="0 0 48 48" fill="none" xmlns="http://www.w3.org/2000/svg">
<path d="M24.0141 4.32187C30.4303 4.32187 31.1902 4.35 33.7135 4.4625C36.0586 4.56562 37.325 4.95938 38.1692 5.2875C39.2855 5.71875 40.0922 6.24375 40.9271 7.07812C41.7713 7.92188 42.2873 8.71875 42.7188 9.83438C43.0471 10.6781 43.4411 11.9531 43.5443 14.2875C43.6568 16.8187 43.685 17.5781 43.685 23.9813C43.685 30.3938 43.6568 31.1531 43.5443 33.675C43.4411 36.0188 43.0471 37.2844 42.7188 38.1281C42.2873 39.2438 41.762 40.05 40.9271 40.8844C40.0829 41.7281 39.2855 42.2438 38.1692 42.675C37.325 43.0031 36.0492 43.3969 33.7135 43.5C31.1808 43.6125 30.421 43.6406 24.0141 43.6406C17.5978 43.6406 16.838 43.6125 14.3146 43.5C11.9695 43.3969 10.7031 43.0031 9.8589 42.675C8.74262 42.2438 7.9359 41.7188 7.10104 40.8844C6.25679 40.0406 5.74086 39.2438 5.30936 38.1281C4.98104 37.2844 4.58706 36.0094 4.48388 33.675C4.37131 31.1438 4.34317 30.3844 4.34317 23.9813C4.34317 17.5688 4.37131 16.8094 4.48388 14.2875C4.58706 11.9437 4.98104 10.6781 5.30936 9.83438C5.74086 8.71875 6.26617 7.9125 7.10104 7.07812C7.94528 6.23438 8.74262 5.71875 9.8589 5.2875C10.7031 4.95938 11.9789 4.56562 14.3146 4.4625C16.838 4.35 17.5978 4.32187 24.0141 4.32187ZM24.0141 0C17.4946 0 16.6785 0.028125 14.1176 0.140625C11.5662 0.253125 9.812 0.665625 8.29236 1.25625C6.70705 1.875 5.36564 2.69062 4.03361 4.03125C2.6922 5.3625 1.8761 6.70313 1.25699 8.27813C0.666015 9.80625 0.253273 11.55 0.140707 14.1C0.0281415 16.6687 0 17.4844 0 24C0 30.5156 0.0281415 31.3312 0.140707 33.8906C0.253273 36.4406 0.666015 38.1938 1.25699 39.7125C1.8761 41.2969 2.6922 42.6375 4.03361 43.9688C5.36564 45.3 6.70706 46.125 8.28298 46.7344C9.812 47.325 11.5568 47.7375 14.1083 47.85C16.6691 47.9625 17.4852 47.9906 24.0047 47.9906C30.5241 47.9906 31.3402 47.9625 33.9011 47.85C36.4526 47.7375 38.2068 47.325 39.7264 46.7344C41.3023 46.125 42.6437 45.3 43.9758 43.9688C45.3078 42.6375 46.1333 41.2969 46.743 39.7219C47.334 38.1938 47.7467 36.45 47.8593 33.9C47.9719 31.3406 48 30.525 48 24.0094C48 17.4938 47.9719 16.6781 47.8593 14.1188C47.7467 11.5688 47.334 9.81563 46.743 8.29688C46.152 6.70312 45.3359 5.3625 43.9945 4.03125C42.6625 2.7 41.3211 1.875 39.7452 1.26562C38.2161 0.675 36.4714 0.2625 33.9199 0.15C31.3496 0.028125 30.5335 0 24.0141 0Z" fill="#222222"/>
<path d="M24.0141 11.6719C17.2038 11.6719 11.6787 17.1938 11.6787 24C11.6787 30.8062 17.2038 36.3281 24.0141 36.3281C30.8243 36.3281 36.3494 30.8062 36.3494 24C36.3494 17.1938 30.8243 11.6719 24.0141 11.6719ZM24.0141 31.9969C19.5959 31.9969 16.0125 28.4156 16.0125 24C16.0125 19.5844 19.5959 16.0031 24.0141 16.0031C28.4323 16.0031 32.0156 19.5844 32.0156 24C32.0156 28.4156 28.4323 31.9969 24.0141 31.9969Z" fill="#222222"/>
<path d="M39.717 11.1843C39.717 12.778 38.4225 14.0624 36.8372 14.0624C35.2425 14.0624 33.9574 12.7687 33.9574 11.1843C33.9574 9.59054 35.2519 8.30616 36.8372 8.30616C38.4225 8.30616 39.717 9.59991 39.717 11.1843Z" fill="#222222"/>
</svg>
