<svg width="48" height="39" viewBox="0 0 48 39" fill="none" xmlns="http://www.w3.org/2000/svg">
<path d="M0 4.8C0 3.52696 0.505713 2.30606 1.40589 1.40589C2.30606 0.505713 3.52696 0 4.8 0H43.2C44.473 0 45.6939 0.505713 46.5941 1.40589C47.4943 2.30606 48 3.52696 48 4.8V33.6C48 34.873 47.4943 36.0939 46.5941 36.9941C45.6939 37.8943 44.473 38.4 43.2 38.4H4.8C3.52696 38.4 2.30606 37.8943 1.40589 36.9941C0.505713 36.0939 0 34.873 0 33.6V4.8ZM8.4456 4.8L24 18.4104L39.5544 4.8H8.4456ZM43.2 7.9896L25.5816 23.4072C25.1439 23.7907 24.5819 24.0021 24 24.0021C23.4181 24.0021 22.8561 23.7907 22.4184 23.4072L4.8 7.9896V33.6H43.2V7.9896Z" fill="#222222"/>
</svg>
