<svg width="374" height="213" viewBox="0 0 374 213" fill="none" xmlns="http://www.w3.org/2000/svg">
<path d="M168.043 7.80764C173.044 2.80842 179.825 0 186.896 0C193.967 0 200.749 2.80842 205.75 7.80764L365.75 167.808C370.607 172.837 373.295 179.573 373.234 186.565C373.174 193.557 370.369 200.245 365.425 205.19C360.481 210.134 353.792 212.938 346.8 212.999C339.808 213.06 333.072 210.372 328.043 205.514L186.896 64.3676L45.7496 205.514C40.7202 210.372 33.9842 213.06 26.9922 212.999C20.0003 212.938 13.312 210.134 8.36778 205.19C3.42356 200.245 0.619047 193.557 0.55829 186.565C0.497532 179.573 3.18539 172.837 8.04294 167.808L168.043 7.80764Z" fill="#222222"/>
</svg>
