<svg width="270" height="147" viewBox="0 0 270 147" fill="none" xmlns="http://www.w3.org/2000/svg">
<path d="M245.673 69.9062L254.792 54.9695L260.606 58.5434C261.912 59.3463 262.901 60.2377 263.572 61.2175C264.243 62.1973 264.588 63.2312 264.608 64.319C264.627 65.4069 264.307 66.4914 263.647 67.5725C262.987 68.6537 262.17 69.4327 261.195 69.9096C260.229 70.3724 259.159 70.5263 257.984 70.3716C256.809 70.2168 255.569 69.738 254.262 68.9351L249.619 66.0812L251.177 65.6887L247.803 71.2153L245.673 69.9062ZM255.641 76.0329L255.158 68.2828L257.437 69.6835L257.962 77.4598L255.641 76.0329ZM251.047 65.9021L250.727 64.2674L255.306 67.0821C256.669 67.9199 257.876 68.261 258.928 68.1054C260.003 67.9443 260.866 67.3303 261.517 66.2634C262.168 65.1965 262.317 64.1532 261.963 63.1336C261.623 62.1227 260.772 61.1984 259.409 60.3605L254.83 57.5459L256.44 57.0681L251.047 65.9021Z" fill="#F28F3B"/>
<path d="M232.973 53.0658L241.215 56.6818L240.367 58.6303L232.125 55.0142L232.973 53.0658ZM230.076 60.2852L239.417 64.3833L238.549 66.3776L226.919 61.275L233.903 45.2291L245.213 50.1911L244.345 52.1854L235.325 48.2278L230.076 60.2852Z" fill="#F28F3B"/>
<path d="M203.086 54.1168L207.665 37.2264L209.642 37.7678L217.045 54.6992L216.008 54.4152L219.769 40.541L222.18 41.2012L217.602 58.0917L215.624 57.5502L208.221 40.6189L209.258 40.9028L205.497 54.7771L203.086 54.1168Z" fill="#F28F3B"/>
<path d="M187.346 52.117C186.004 51.9676 184.794 51.6148 183.715 51.0586C182.637 50.4858 181.728 49.7557 180.987 48.8682C180.247 47.9642 179.705 46.9479 179.359 45.8193C179.013 44.6908 178.91 43.4803 179.052 42.1881C179.193 40.8958 179.555 39.737 180.136 38.7117C180.718 37.6865 181.466 36.8223 182.381 36.1193C183.315 35.4015 184.369 34.89 185.542 34.5847C186.717 34.2628 187.984 34.1775 189.342 34.3287C190.717 34.4818 191.952 34.8457 193.046 35.4203C194.14 35.9949 195.035 36.7738 195.732 37.757L194.023 39.1262C193.387 38.3511 192.664 37.7591 191.854 37.3502C191.062 36.9266 190.177 36.6604 189.2 36.5516C188.206 36.4409 187.26 36.5033 186.363 36.7387C185.482 36.976 184.694 37.3578 183.999 37.8842C183.321 38.4124 182.763 39.0713 182.324 39.8609C181.904 40.6359 181.641 41.5038 181.536 42.4647C181.433 43.4091 181.502 44.3139 181.742 45.1792C182.001 46.0298 182.404 46.7957 182.95 47.4769C183.514 48.1435 184.2 48.6895 185.009 49.1149C185.817 49.5403 186.718 49.8084 187.712 49.919C188.64 50.0223 189.542 49.9802 190.417 49.7926C191.311 49.5903 192.16 49.1901 192.963 48.592L194.172 50.6384C193.231 51.2715 192.16 51.714 190.959 51.9659C189.776 52.2032 188.572 52.2535 187.346 52.117ZM191.822 50.0497L192.529 43.5883L194.915 43.8539L194.172 50.6384L191.822 50.0497Z" fill="#F28F3B"/>
<path d="M169.713 51.0508L169.759 33.5509L172.259 33.561L172.213 51.061L169.713 51.0508Z" fill="#F28F3B"/>
<path d="M155.957 51.9825C154.629 52.0996 153.341 52.0122 152.094 51.7206C150.845 51.4124 149.843 50.9652 149.088 50.3792L149.836 48.3557C150.552 48.8782 151.442 49.2851 152.505 49.5762C153.568 49.8673 154.656 49.9639 155.769 49.8659C156.781 49.7767 157.593 49.588 158.203 49.3C158.813 49.012 159.25 48.6557 159.513 48.2309C159.775 47.7896 159.883 47.3116 159.838 46.7969C159.784 46.1993 159.542 45.7354 159.111 45.4053C158.697 45.0737 158.165 44.8278 157.515 44.6676C156.88 44.4893 156.181 44.3501 155.419 44.2499C154.658 44.1497 153.885 44.0253 153.102 43.8768C152.334 43.7102 151.62 43.4804 150.958 43.1874C150.312 42.8929 149.773 42.4719 149.339 41.9245C148.904 41.3605 148.645 40.6137 148.563 39.684C148.483 38.7876 148.642 37.9454 149.041 37.1573C149.454 36.3513 150.131 35.681 151.07 35.1464C152.025 34.5938 153.266 34.2503 154.794 34.1157C155.806 34.0265 156.823 34.0708 157.842 34.2486C158.862 34.4265 159.76 34.7322 160.534 35.1659L159.89 37.2304C159.098 36.7982 158.278 36.5108 157.429 36.3681C156.578 36.2088 155.762 36.1636 154.982 36.2323C154.003 36.3186 153.208 36.5141 152.6 36.8187C151.991 37.1233 151.556 37.4963 151.294 37.9376C151.048 38.3775 150.949 38.8548 150.994 39.3694C151.049 39.9836 151.284 40.4566 151.698 40.7881C152.129 41.1183 152.661 41.3642 153.295 41.5258C153.945 41.6861 154.651 41.8246 155.415 41.9414C156.177 42.0416 156.941 42.1666 157.707 42.3166C158.49 42.4652 159.204 42.6867 159.849 42.9812C160.511 43.2742 161.059 43.6944 161.493 44.2418C161.926 44.7892 162.184 45.5194 162.265 46.4325C162.343 47.3123 162.176 48.1553 161.762 48.9614C161.347 49.7508 160.654 50.4226 159.682 50.9767C158.726 51.5127 157.484 51.848 155.957 51.9825Z" fill="#F28F3B"/>
<path d="M130.785 45.9979L139.577 44.0741L140.032 46.15L131.24 48.0738L130.785 45.9979ZM132.668 53.5449L142.632 51.3647L143.097 53.4893L130.691 56.204L126.948 39.1089L139.013 36.469L139.478 38.5937L129.855 40.6992L132.668 53.5449Z" fill="#F28F3B"/>
<path d="M106.834 64.6075L100.629 48.2445L107.523 45.6241C109.267 44.9609 110.932 44.7204 112.516 44.9028C114.116 45.0792 115.515 45.6438 116.715 46.5966C117.929 47.5435 118.844 48.8272 119.458 50.448C120.073 52.0687 120.24 53.6367 119.959 55.1521C119.694 56.6615 119.021 58.0137 117.941 59.2087C116.877 60.3977 115.473 61.3238 113.728 61.9871L106.834 64.6075ZM108.4 61.6855L112.816 60.0067C114.172 59.4915 115.243 58.7902 116.029 57.9029C116.831 57.0096 117.33 55.9997 117.527 54.873C117.718 53.7307 117.583 52.5518 117.122 51.3362C116.655 50.1051 115.974 49.1335 115.08 48.4213C114.186 47.7091 113.143 47.2854 111.951 47.1501C110.775 47.0089 109.509 47.1959 108.154 47.7111L103.737 49.3899L108.4 61.6855Z" fill="#F28F3B"/>
<path d="M79.7285 80.3329L80.5816 68.0457L81.6083 69.6741L70.7328 65.3157L73.1407 63.7912L81.7322 67.1989L80.795 67.8218L81.3785 58.5756L83.6808 57.1179L82.9012 68.6779L81.9412 67.1553L93.3947 71.6804L90.9656 73.2183L81.8117 69.5749L82.7411 68.9865L82.1576 78.7949L79.7285 80.3329Z" fill="#C8553D"/>
<path d="M68.5366 89.8955C66.7908 91.3929 64.9909 92.0694 63.1367 91.9251C61.2826 91.7807 59.5333 90.7451 57.8887 88.8181L51.4296 81.2496L53.3272 79.622L59.7214 87.1144C60.9873 88.5977 62.2349 89.4049 63.4644 89.5361C64.7065 89.6565 65.9221 89.2067 67.1112 88.1867C68.3131 87.1559 68.9445 86.0215 69.0054 84.7836C69.079 83.5347 68.4829 82.1687 67.217 80.6854L60.8228 73.193L62.6635 71.6142L69.1226 79.1827C70.7671 81.1097 71.5171 83.0026 71.3724 84.8613C71.2403 86.7092 70.2951 88.3872 68.5366 89.8955Z" fill="#C8553D"/>
<path d="M54.9409 106.756L43.3583 84.6292L44.8394 83.0364L56.422 105.163L54.9409 106.756Z" fill="#C8553D"/>
<path d="M49.2237 109.915L35.6914 98.8187L37.2708 96.8808L50.8032 107.977L49.2237 109.915Z" fill="#C8553D"/>
<path d="M39.6737 123.727C38.4222 125.657 36.887 126.814 35.068 127.199C33.2491 127.584 31.279 127.084 29.1577 125.699L20.8262 120.259L22.1866 118.162L30.4343 123.547C32.0671 124.613 33.4916 125.035 34.7077 124.814C35.9329 124.579 36.9717 123.804 37.8242 122.49C38.6858 121.161 38.971 119.895 38.6799 118.689C38.3979 117.47 37.4405 116.328 35.8077 115.262L27.5599 109.877L28.8794 107.842L37.2109 113.282C39.3322 114.667 40.5858 116.271 40.9719 118.096C41.367 119.906 40.9343 121.783 39.6737 123.727Z" fill="#C8553D"/>
</svg>
